<?xml version="1.0" standalone="no"?>
<!DOCTYPE svg PUBLIC "-//W3C//DTD SVG 20010904//EN"
 "http://www.w3.org/TR/2001/REC-SVG-20010904/DTD/svg10.dtd">
<svg version="1.0" xmlns="http://www.w3.org/2000/svg"
 width="64px" height="64px" viewBox="0 0 840.000000 840.000000"
 preserveAspectRatio="xMidYMid meet">
<metadata>
Created by potrace 1.15, written by Peter Selinger 2001-2017
</metadata>
<g transform="translate(0.000000,840.000000) scale(0.100000,-0.100000)"
fill="#4285f4" stroke="none" id="th-logo-color">
<path d="M4227 8394 c-2 -2 -19 -6 -38 -8 -46 -4 -147 -35 -155 -47 -3 -5 -10
-7 -15 -4 -5 4 -9 2 -9 -3 0 -5 -6 -9 -12 -9 -16 0 -150 -81 -160 -97 -4 -6
-8 -8 -8 -3 0 4 -8 -1 -19 -10 -71 -67 -111 -102 -111 -97 0 4 -10 -6 -22 -21
-12 -16 -36 -43 -53 -60 -46 -48 -76 -86 -119 -148 -22 -31 -43 -57 -46 -57
-4 0 -13 -14 -20 -30 -18 -43 -24 -44 -70 -15 -53 34 -222 118 -290 145 -171
68 -320 95 -484 87 -198 -9 -344 -73 -482 -211 -195 -196 -291 -454 -329 -886
l-6 -65 -152 -4 c-158 -4 -242 -7 -242 -11 0 -1 -12 -4 -27 -6 -16 -2 -40 -6
-55 -8 -16 -2 -28 -5 -28 -6 0 -2 -24 -7 -75 -15 -24 -4 -49 -10 -55 -13 -5
-4 -14 -7 -20 -9 -44 -9 -55 -13 -71 -21 -11 -5 -46 -22 -79 -38 -33 -16 -61
-32 -63 -36 -2 -4 -9 -8 -16 -8 -7 0 -23 -9 -36 -20 -13 -11 -27 -20 -31 -20
-5 0 -42 -33 -81 -73 -92 -92 -165 -219 -196 -337 -24 -92 -33 -269 -19 -365
5 -27 10 -60 12 -72 16 -100 82 -290 151 -431 l31 -63 -21 -13 c-11 -7 -43
-26 -71 -41 -101 -57 -242 -162 -328 -244 -208 -200 -297 -386 -297 -618 0
-175 47 -324 150 -478 76 -113 250 -282 401 -389 l126 -89 -55 -91 c-70 -116
-171 -334 -186 -401 -2 -5 -8 -28 -14 -50 -6 -22 -14 -58 -17 -80 -4 -22 -10
-57 -15 -78 -8 -39 -5 -222 5 -272 32 -159 99 -282 214 -393 42 -41 83 -80 91
-86 17 -15 190 -109 205 -113 6 -1 34 -11 63 -21 28 -11 52 -18 52 -15 0 3 6
1 13 -4 15 -13 103 -34 197 -48 20 -3 47 -7 60 -10 14 -3 61 -8 105 -11 44 -3
83 -8 88 -11 4 -2 7 -46 7 -96 2 -500 165 -853 465 -1004 114 -58 187 -75 340
-80 165 -6 299 15 464 72 104 36 266 105 313 133 15 9 29 14 31 11 2 -2 21
-35 41 -74 106 -196 258 -392 381 -490 20 -16 49 -39 64 -51 46 -37 164 -99
223 -118 32 -10 59 -17 60 -17 2 1 23 -4 48 -12 43 -13 205 -15 260 -4 69 14
127 32 148 45 12 8 22 11 22 7 0 -3 15 2 33 12 149 89 177 107 177 116 0 6 3
8 6 4 14 -13 185 158 284 285 40 51 63 82 104 142 13 19 15 18 72 -16 177
-107 408 -196 563 -219 110 -15 286 -6 373 19 122 37 204 88 308 192 106 106
162 194 218 344 56 149 79 267 108 561 l5 50 162 1 c89 1 187 5 217 9 30 4 69
8 85 10 17 2 30 4 30 5 0 2 20 6 62 13 17 3 36 8 41 11 4 3 22 8 38 11 46 10
40 7 154 57 121 52 212 121 307 231 32 38 120 204 128 244 5 23 10 45 21 86
10 38 13 274 4 314 -5 21 -12 54 -15 73 -17 98 -71 258 -132 389 -34 73 -41
96 -31 102 7 5 52 31 99 59 317 189 525 431 584 682 19 82 19 242 0 342 -20
102 -84 238 -162 341 -101 133 -287 300 -450 403 -24 15 -43 32 -43 37 0 6 11
26 24 45 22 33 78 136 131 240 13 25 31 65 40 90 10 25 21 54 26 65 8 18 45
147 54 186 16 72 22 249 12 319 -12 74 -55 200 -90 260 -24 41 -106 150 -123
165 -7 6 -27 21 -44 35 -18 14 -40 32 -50 41 -29 27 -193 115 -240 129 -25 8
-50 17 -56 22 -7 5 -21 11 -33 13 -12 3 -30 7 -41 10 -26 6 -56 13 -100 22
-47 10 -50 10 -52 13 -2 1 -16 3 -33 5 -16 1 -30 4 -30 5 0 1 -18 4 -40 5 -22
2 -40 4 -40 5 0 1 -27 4 -60 5 -33 2 -63 3 -66 4 -3 0 -9 72 -12 159 -13 317
-75 539 -201 715 -215 303 -600 387 -1063 232 -59 -20 -159 -60 -222 -91 -63
-30 -115 -53 -117 -52 -1 2 -24 41 -52 88 -87 150 -96 164 -121 200 -14 19
-28 37 -31 40 -3 3 -23 28 -44 55 -55 70 -171 184 -236 232 -59 43 -190 118
-190 108 0 -3 -13 1 -30 10 -16 9 -30 13 -30 9 0 -4 -6 -2 -12 4 -7 5 -29 13
-48 17 -39 8 -256 15 -263 9z m193 -347 c8 -2 28 -7 44 -12 38 -10 116 -54
116 -65 0 -5 9 -12 21 -15 12 -4 51 -37 88 -74 79 -80 94 -98 146 -176 22 -33
43 -62 46 -65 4 -3 30 -49 58 -102 l52 -97 -63 -42 c-129 -87 -305 -227 -549
-437 l-38 -33 -68 73 c-149 160 -274 284 -420 415 -84 76 -153 141 -153 144 0
4 57 86 87 124 5 6 17 24 27 40 10 17 62 73 116 126 116 115 216 177 314 196
11 2 22 5 24 7 5 5 131 0 152 -7z m-1582 -393 c47 -14 118 -39 157 -56 97 -42
245 -130 245 -145 0 -6 -14 -36 -31 -65 -17 -29 -33 -61 -35 -71 -2 -10 -15
-39 -29 -63 -14 -24 -23 -44 -20 -44 3 0 -4 -18 -15 -40 -11 -22 -18 -40 -14
-40 4 0 2 -6 -4 -13 -10 -12 -39 -86 -47 -121 -2 -10 -9 -24 -15 -32 -7 -7 -9
-18 -6 -23 4 -5 2 -12 -4 -16 -8 -5 -16 -28 -35 -95 -1 -3 -7 -23 -13 -45 -6
-22 -12 -43 -12 -47 0 -4 -9 -28 -20 -53 -11 -25 -21 -49 -22 -53 -3 -6 -19
-6 -43 2 -5 1 -23 6 -40 11 -16 4 -34 10 -40 14 -5 3 -14 6 -20 8 -9 2 -29 6
-75 18 -22 6 -60 15 -75 19 -5 1 -26 7 -45 14 -19 6 -46 13 -60 16 -14 3 -35
7 -47 10 -42 11 -67 16 -104 21 -20 3 -50 10 -67 15 -18 5 -32 6 -32 4 0 -3
-6 -2 -12 3 -7 4 -24 8 -38 9 -14 1 -25 2 -25 3 0 2 -11 4 -25 7 -53 9 -52 8
-45 102 28 373 135 625 307 726 103 60 243 67 406 20z m3313 -158 c229 -49
352 -232 389 -576 5 -52 10 -133 10 -180 l0 -85 -67 -4 c-38 -2 -86 -4 -108
-5 -22 -1 -44 -4 -50 -7 -5 -3 -30 -7 -55 -9 -57 -3 -95 -8 -95 -10 0 -3 -38
-9 -84 -15 -24 -2 -51 -6 -60 -9 -9 -3 -34 -7 -56 -11 -65 -9 -98 -16 -104
-20 -4 -2 -27 -6 -51 -10 -51 -8 -75 -13 -75 -15 0 -2 -35 -10 -70 -16 -32 -5
-33 -2 -59 143 -1 7 -5 16 -9 19 -4 4 -7 16 -7 26 0 37 -132 479 -150 503 -5
6 -10 24 -13 42 -3 17 -8 37 -12 43 -15 24 327 165 461 189 133 24 177 25 265
7z m-2527 -325 c48 -40 174 -164 282 -274 l196 -200 -59 -61 c-96 -101 -205
-218 -256 -275 l-48 -55 -29 18 c-16 9 -31 16 -33 14 -1 -2 -23 5 -47 16 -94
39 -106 44 -145 62 -22 10 -42 18 -45 18 -8 2 -71 26 -105 40 -16 8 -43 19
-58 25 -22 9 -27 16 -22 29 8 21 16 53 17 70 1 6 4 12 8 12 4 0 7 6 8 13 3 44
87 279 165 462 60 141 72 165 79 162 4 -1 45 -35 92 -76z m1612 -386 c9 -33
18 -69 20 -80 1 -11 3 -21 3 -22 1 -2 1 -5 2 -8 0 -2 9 -35 20 -72 11 -38 22
-79 24 -93 2 -14 7 -39 10 -56 5 -22 3 -31 -7 -32 -7 0 -24 -3 -38 -7 -14 -3
-29 -7 -35 -8 -5 -2 -14 -5 -20 -9 -5 -3 -26 -9 -45 -13 -19 -4 -39 -10 -45
-13 -5 -4 -14 -7 -20 -9 -33 -7 -59 -15 -135 -42 -47 -16 -92 -31 -101 -33
-12 -2 -63 58 -163 190 l-147 193 55 50 c133 122 344 292 461 372 l50 34 47
-141 c26 -78 55 -168 64 -201z m-3444 -360 c19 -200 76 -580 110 -725 2 -8
-53 -25 -147 -46 -195 -44 -438 -114 -593 -170 -68 -25 -125 -44 -127 -42 -2
2 -15 29 -29 61 -14 31 -37 81 -50 111 -26 57 -70 211 -82 286 -7 50 -7 184 1
218 3 12 7 32 10 44 2 12 9 26 15 32 5 5 10 16 10 24 0 15 25 50 78 109 17 19
32 32 32 27 0 -5 4 -4 8 2 8 13 91 66 106 68 6 1 16 5 23 9 14 9 97 36 131 42
57 12 80 16 122 21 25 4 46 7 47 8 1 0 75 1 165 1 l163 0 7 -80z m419 30 c20
-3 50 -10 67 -15 18 -5 32 -6 32 -4 0 3 6 2 13 -3 6 -4 17 -8 22 -10 18 -4 60
-13 85 -18 60 -13 71 -15 90 -20 46 -12 66 -16 75 -18 6 -2 15 -5 20 -8 6 -4
24 -10 40 -14 37 -10 52 -14 68 -19 6 -2 27 -7 45 -11 18 -4 35 -12 38 -16 3
-5 10 -7 15 -3 10 6 8 -7 -18 -111 -9 -33 -17 -69 -19 -80 -1 -11 -5 -31 -8
-45 -3 -14 -11 -47 -16 -75 -34 -166 -36 -170 -61 -177 -13 -4 -105 -16 -204
-28 -99 -12 -196 -24 -216 -27 l-36 -5 -16 78 c-36 171 -97 569 -97 636 0 4
10 5 22 3 12 -3 39 -7 59 -10z m2213 -162 l105 -137 -47 -16 c-26 -10 -59 -23
-72 -30 -14 -7 -27 -13 -30 -13 -7 0 -50 -16 -81 -32 -19 -9 -31 -10 -45 -2
-10 6 -24 12 -31 13 -7 1 -46 21 -88 44 l-77 42 43 47 c66 70 213 221 216 221
1 0 50 -62 107 -137z m2596 12 c14 -2 45 -6 70 -9 25 -3 77 -15 115 -27 39
-11 78 -22 87 -24 9 -2 27 -9 40 -16 13 -7 26 -12 30 -11 8 2 97 -49 124 -70
60 -48 116 -120 140 -178 22 -55 26 -80 26 -165 0 -55 -5 -113 -11 -129 -6
-16 -9 -31 -6 -34 2 -3 0 -11 -5 -18 -6 -6 -10 -16 -9 -20 1 -5 -1 -16 -4 -24
-3 -8 -13 -37 -22 -65 -9 -27 -23 -60 -31 -72 -8 -12 -14 -28 -14 -34 0 -14
-76 -150 -123 -220 l-30 -46 -121 55 c-154 69 -356 148 -517 201 l-126 42 39
122 c67 209 178 668 178 738 0 19 5 20 73 15 40 -4 84 -8 97 -11z m-514 -13
c-3 -10 -8 -35 -12 -57 -24 -144 -74 -341 -146 -571 l-40 -131 -67 19 c-36 10
-151 37 -256 60 -104 22 -192 43 -194 44 -2 2 -10 50 -17 107 -7 56 -16 127
-20 157 -3 30 -14 101 -24 158 -9 56 -13 103 -8 103 19 3 23 5 33 11 6 3 30 9
55 13 25 4 48 8 51 11 4 2 24 6 44 10 54 8 74 12 95 19 10 3 34 8 52 10 18 2
44 6 58 10 50 11 125 21 240 32 36 3 66 6 67 7 1 0 22 2 48 3 38 1 45 -2 41
-15z m-3296 -133 c30 -11 60 -21 65 -23 6 -1 25 -10 43 -19 17 -10 32 -15 32
-12 0 4 17 -2 38 -13 20 -10 56 -28 79 -38 l43 -19 -73 -91 -72 -91 -59 -7
c-32 -3 -96 -6 -142 -6 l-83 0 5 33 c3 17 12 55 19 82 8 28 16 61 18 75 6 32
31 150 32 150 0 0 25 -9 55 -21z m2178 -71 c0 -7 3 -26 5 -43 5 -28 31 -205
42 -287 6 -45 14 -43 -125 -22 l-105 16 -74 115 c-74 114 -77 129 -35 137 10
2 33 10 49 16 17 6 37 13 45 15 13 3 193 62 196 64 0 1 1 -5 2 -11z m-983
-589 l180 -11 85 -45 c47 -25 90 -50 95 -57 6 -7 45 -31 87 -55 43 -23 84 -48
90 -55 7 -7 42 -29 78 -50 36 -21 67 -41 70 -45 3 -4 25 -18 49 -32 39 -23 52
-42 134 -195 49 -93 121 -234 160 -314 l69 -145 -1 -135 c0 -74 -3 -173 -6
-220 -2 -47 -7 -139 -10 -205 -5 -88 -11 -131 -26 -161 -10 -22 -74 -126 -142
-230 -227 -349 -198 -314 -322 -388 -61 -35 -117 -66 -125 -68 -8 -2 -17 -5
-20 -8 -6 -6 -45 -27 -190 -102 -63 -33 -121 -65 -127 -70 -7 -6 -13 -8 -13
-4 0 4 -14 -1 -32 -10 -35 -18 -99 -17 -498 7 l-175 11 -92 49 c-51 28 -95 54
-98 59 -3 5 -46 32 -95 60 -49 28 -92 56 -96 61 -3 5 -26 20 -52 33 -26 13
-58 34 -72 46 -14 12 -38 29 -55 37 -16 9 -38 24 -47 34 -22 22 -171 301 -256
478 l-65 135 7 230 c8 265 15 409 21 450 6 32 77 149 258 423 116 176 122 184
187 222 36 22 73 41 81 43 7 2 20 9 27 16 7 6 20 12 28 12 8 0 14 5 14 10 0 6
5 10 12 10 6 0 42 18 79 40 37 22 72 40 78 40 5 0 34 14 63 31 29 18 59 32 66
32 6 0 12 4 12 9 0 5 3 7 8 5 4 -3 23 6 42 19 34 24 38 24 195 19 88 -3 241
-10 340 -16z m-1740 -51 c-3 -13 -8 -48 -11 -78 -2 -30 -7 -62 -10 -70 -3 -8
-8 -35 -11 -60 -5 -42 -43 -97 -57 -82 -3 3 -6 -1 -6 -8 0 -7 -3 -10 -7 -7 -3
4 -11 0 -17 -7 -6 -8 -34 -28 -62 -44 l-52 -30 -46 151 c-25 84 -48 166 -52
183 l-6 31 154 20 c204 27 192 27 183 1z m-631 -248 c25 -85 59 -195 76 -244
28 -85 37 -127 24 -113 -3 3 -13 -1 -22 -9 -10 -7 -53 -41 -97 -74 -84 -63
-123 -93 -158 -123 -12 -10 -35 -28 -50 -40 -15 -12 -40 -32 -55 -44 -27 -23
-52 -30 -52 -15 0 4 -26 34 -58 68 -31 33 -79 87 -107 119 -27 32 -54 63 -60
69 -34 38 -102 124 -159 201 -36 50 -70 95 -74 101 -5 5 -14 20 -20 31 -11 19
-6 23 76 52 139 49 275 89 447 131 219 53 240 57 242 51 1 -3 23 -76 47 -161z
m3963 69 c98 -23 182 -44 186 -49 8 -7 -116 -320 -127 -320 -3 0 -59 42 -102
78 -12 9 -34 26 -50 37 -72 52 -68 44 -79 174 -5 67 -9 121 -8 121 1 0 82 -18
180 -41z m968 -302 c253 -106 235 -97 217 -116 -10 -10 -32 -35 -51 -57 -125
-145 -195 -218 -354 -368 l-89 -83 -57 56 c-32 31 -93 88 -136 126 -44 39 -99
88 -123 110 l-43 40 31 70 c31 69 141 333 153 367 6 16 23 12 165 -37 87 -30
216 -79 287 -108z m-6025 -20 c56 -84 242 -331 270 -357 3 -3 28 -32 55 -65
67 -80 111 -129 164 -182 24 -23 39 -43 35 -43 -5 0 -53 -43 -108 -95 -54 -52
-103 -95 -109 -95 -6 0 -8 -2 -5 -6 3 -3 -22 -33 -56 -68 -54 -55 -87 -91
-221 -241 -16 -19 -39 -45 -50 -59 -11 -14 -24 -25 -28 -26 -4 0 -36 19 -70
42 -161 108 -304 240 -374 344 -38 56 -75 121 -72 126 1 2 -4 23 -11 48 -17
64 -16 166 3 230 33 112 150 254 293 356 82 59 224 144 238 144 6 0 27 -24 46
-53z m6615 -288 c221 -140 419 -350 469 -496 56 -165 13 -320 -132 -474 -85
-92 -186 -170 -311 -243 -93 -55 -77 -60 -148 44 -21 30 -44 61 -50 68 -7 7
-13 16 -13 20 0 4 -13 21 -28 38 -15 18 -34 42 -42 54 -14 20 -23 32 -68 85
-9 11 -35 42 -57 70 -22 27 -56 67 -75 89 -19 21 -48 53 -63 70 -15 17 -46 49
-68 72 l-39 41 205 209 c264 268 295 301 329 347 16 20 31 37 35 37 4 0 29
-14 56 -31z m-5247 -257 l42 -109 -66 -121 c-43 -80 -70 -120 -77 -115 -12 7
-33 26 -108 95 -20 18 -60 54 -88 80 l-52 48 27 22 c15 13 32 28 38 33 18 17
70 58 106 85 18 14 52 40 74 57 23 18 46 33 52 33 5 0 29 -49 52 -108z m3940
-107 c131 -118 186 -176 176 -183 -21 -13 -77 -57 -100 -77 -12 -11 -35 -29
-50 -40 -16 -11 -36 -28 -46 -37 -10 -10 -18 -16 -18 -13 0 5 -31 -19 -61 -47
-22 -21 -17 -28 -68 102 l-41 106 68 126 c55 105 69 124 81 115 8 -7 35 -30
59 -52z m-4443 -330 c24 -22 71 -65 106 -97 35 -31 82 -72 104 -92 22 -19 43
-36 47 -36 4 0 -12 -42 -36 -92 -23 -51 -68 -157 -100 -235 l-58 -141 -132 45
c-246 84 -540 206 -534 222 5 15 81 102 146 169 34 35 62 68 62 73 0 6 5 7 10
4 6 -3 10 -2 10 4 0 9 130 140 234 236 l39 36 30 -28 c16 -15 49 -46 72 -68z
m5025 -251 c14 -16 48 -56 75 -89 28 -33 55 -65 60 -72 6 -6 20 -24 32 -40 12
-15 30 -38 40 -50 10 -11 25 -31 33 -43 8 -12 20 -28 25 -34 27 -30 88 -127
83 -131 -24 -24 -396 -135 -629 -189 l-146 -33 -33 116 c-18 64 -52 178 -77
254 -41 127 -43 139 -28 159 8 13 15 19 15 15 0 -4 8 0 18 8 9 8 35 28 57 45
86 65 99 75 112 88 7 7 13 11 13 7 0 -4 6 0 13 7 8 7 28 24 46 38 18 14 38 30
44 35 7 6 30 25 51 44 l39 33 66 -69 c36 -39 77 -83 91 -99z m-4370 -301 c109
-84 100 -68 106 -188 2 -59 7 -111 9 -116 13 -19 -22 -15 -190 25 -162 38
-180 44 -178 62 1 11 30 86 64 167 l62 147 36 -27 c20 -15 61 -46 91 -70z
m3533 -190 c20 -65 44 -148 55 -184 l19 -66 -141 -17 c-78 -10 -154 -20 -170
-23 l-29 -5 6 53 c4 30 9 70 12 89 12 82 13 96 14 122 1 20 10 32 41 49 22 13
40 27 40 31 0 5 5 6 10 3 6 -3 10 -1 10 5 0 6 5 8 10 5 6 -3 10 -2 10 3 0 9
58 51 71 52 3 0 22 -53 42 -117z m-4773 -65 c128 -56 296 -119 441 -167 l96
-32 -43 -133 c-51 -160 -123 -444 -155 -613 l-23 -122 -70 5 c-124 8 -196 19
-311 48 -49 12 -90 29 -184 75 -104 51 -199 167 -226 276 -7 31 -8 164 -1 201
3 12 7 39 10 60 7 44 38 131 68 187 10 20 17 37 13 37 -11 0 110 222 143 260
14 18 18 17 71 -7 31 -14 108 -48 171 -75z m6192 -313 c79 -176 117 -337 113
-475 -2 -43 -8 -88 -15 -99 -6 -12 -8 -21 -5 -21 3 0 -1 -13 -9 -29 -9 -16
-12 -31 -9 -35 4 -3 1 -6 -6 -6 -7 0 -10 -4 -7 -9 16 -26 -176 -185 -237 -197
-11 -2 -24 -8 -31 -13 -6 -5 -29 -13 -51 -17 -51 -10 -54 -11 -57 -14 -5 -3
-41 -10 -78 -14 -19 -2 -35 -5 -35 -6 0 -9 -323 -20 -361 -12 -20 4 -22 12
-29 90 -10 129 -52 418 -84 580 -19 98 -25 145 -17 147 6 2 76 18 156 35 181
40 407 105 570 163 69 25 129 44 134 43 5 -1 31 -51 58 -111z m-4918 -76 l113
-23 12 -120 c7 -67 17 -141 21 -166 5 -25 11 -72 15 -105 6 -58 9 -74 20 -114
5 -15 -3 -21 -42 -31 -56 -14 -68 -16 -118 -24 -20 -4 -40 -8 -44 -10 -3 -3
-26 -7 -51 -11 -25 -4 -48 -9 -52 -11 -4 -3 -27 -7 -50 -9 -24 -3 -54 -7 -68
-10 -61 -13 -120 -20 -265 -31 -44 -3 -84 -7 -90 -7 -27 -5 52 343 150 658
l34 111 151 -37 c83 -21 202 -48 264 -60z m586 -105 c58 -8 105 -16 106 -17 1
-1 33 -52 72 -114 56 -89 68 -114 58 -122 -12 -10 -87 -36 -136 -48 -8 -2 -19
-5 -25 -6 -5 -1 -16 -6 -22 -10 -12 -7 -29 -12 -70 -21 -7 -1 -16 -5 -19 -9
-4 -4 -15 -7 -24 -7 -18 0 -22 17 -36 153 -3 29 -7 54 -9 57 -2 3 -6 37 -10
75 -4 39 -9 73 -12 78 -6 10 10 9 127 -9z m3070 -18 c0 -3 13 -72 29 -153 27
-132 57 -332 76 -495 l6 -58 -29 0 c-16 0 -32 3 -36 7 -3 4 -12 8 -19 9 -69
11 -94 15 -107 19 -8 2 -26 6 -40 9 -14 3 -36 7 -50 10 -14 3 -38 9 -55 12
-16 3 -34 9 -40 12 -5 4 -14 7 -20 9 -9 2 -29 6 -75 18 -11 3 -30 8 -42 11
-13 3 -27 6 -33 8 -5 2 -23 6 -40 11 -16 4 -34 10 -40 14 -5 3 -12 6 -15 7
-53 10 -73 28 -53 48 4 3 8 12 9 19 2 7 5 23 8 37 3 14 11 50 17 80 6 30 14
62 17 70 7 21 11 39 17 85 3 21 10 57 16 80 6 22 12 47 14 55 3 21 24 26 245
53 212 27 240 29 240 23z m-846 -118 c-4 -18 -8 -42 -10 -53 -5 -35 -15 -79
-26 -120 -5 -22 -12 -49 -15 -60 -2 -11 -6 -27 -8 -35 -2 -8 -4 -21 -4 -28 -1
-10 -8 -9 -31 3 -16 9 -30 13 -30 9 0 -3 -15 3 -32 14 -18 12 -37 20 -41 20
-11 0 -67 21 -100 38 -15 9 -37 17 -48 19 -36 7 -71 35 -61 48 4 7 36 47 70
89 70 87 59 83 245 86 l99 2 -8 -32z m-1149 -191 c53 -21 175 -91 173 -99 -2
-5 -59 -68 -128 -141 l-125 -133 -20 25 c-11 14 -59 77 -107 140 l-87 115 57
24 c31 13 62 25 67 26 16 4 68 27 95 42 30 16 36 16 75 1z m-570 -284 c27 -38
94 -126 149 -197 l99 -129 -44 -39 c-191 -167 -379 -318 -476 -381 -49 -31
-50 -31 -78 68 -10 33 -21 65 -25 70 -11 16 -109 382 -134 503 -3 16 2 26 17
34 12 6 24 11 27 10 3 -1 37 8 75 20 39 12 77 23 85 25 8 2 20 5 25 6 6 1 15
5 20 8 8 5 55 19 75 23 3 1 10 4 15 7 9 6 61 21 77 23 3 1 10 4 14 9 16 16 32
4 79 -60z m1178 -3 c21 -12 37 -19 37 -15 0 3 17 -2 38 -13 20 -11 57 -27 82
-37 25 -9 53 -21 64 -27 10 -5 26 -11 35 -13 38 -9 107 -37 118 -48 9 -9 3
-35 -23 -112 -20 -55 -37 -108 -39 -117 -2 -9 -8 -25 -14 -36 -6 -11 -7 -22
-4 -26 3 -3 0 -6 -7 -6 -7 0 -11 -3 -7 -6 3 -3 -5 -30 -18 -60 -13 -30 -22
-54 -19 -54 2 0 -4 -17 -15 -37 -10 -21 -19 -41 -20 -46 0 -4 -8 -21 -16 -37
-9 -17 -13 -30 -10 -30 3 0 -7 -24 -22 -52 -15 -29 -28 -59 -29 -66 -2 -7 -10
-24 -19 -38 l-16 -25 -37 30 c-85 67 -285 260 -404 387 l-127 137 133 141 c73
78 155 166 182 196 l49 56 36 -13 c20 -6 52 -22 72 -33z m-2009 -220 c3 -19
19 -83 35 -142 16 -60 27 -108 24 -108 -3 0 -1 -6 5 -13 6 -7 12 -24 14 -37 5
-32 108 -352 118 -365 4 -5 11 -25 15 -43 l7 -33 -104 -48 c-437 -207 -736
-195 -894 36 -82 120 -121 273 -131 516 l-6 157 56 1 c63 2 116 5 120 9 3 2
56 8 122 14 28 2 50 5 50 6 0 3 42 10 87 14 24 2 43 5 43 6 0 2 36 9 85 15 25
4 53 9 62 11 10 3 29 7 43 10 14 2 36 6 50 8 14 3 33 7 43 10 25 8 73 17 99
20 12 1 25 5 29 9 10 10 21 -10 28 -53z m2819 -76 c9 -2 25 -6 35 -8 9 -2 31
-10 47 -16 30 -12 48 -17 95 -26 14 -3 68 -16 120 -30 52 -13 105 -27 118 -29
12 -3 30 -7 41 -9 10 -2 36 -7 57 -11 22 -3 53 -8 69 -11 17 -3 48 -9 70 -13
l40 -7 -2 -89 c-8 -276 -88 -525 -213 -658 -130 -139 -300 -168 -536 -91 -145
47 -364 162 -364 191 0 8 13 40 29 71 38 74 81 169 121 267 6 17 18 50 26 75
8 25 19 54 24 65 12 25 32 79 31 83 -1 1 6 16 14 32 8 16 15 31 14 32 -3 4 11
49 21 73 5 11 17 47 26 81 l17 60 41 -14 c23 -7 49 -16 59 -18z m-1471 -341
c134 -146 265 -276 403 -401 83 -74 158 -143 169 -153 18 -16 18 -17 0 -45
-11 -16 -22 -33 -27 -39 -4 -5 -24 -32 -44 -60 -64 -86 -159 -187 -231 -246
-52 -42 -194 -109 -242 -114 -25 -3 -54 -6 -64 -8 -23 -4 -102 9 -131 21 -120
52 -134 62 -250 177 -86 86 -160 188 -235 327 l-47 86 71 49 c111 76 320 240
451 356 66 58 121 106 122 106 1 1 26 -25 55 -56z"/>
<path d="M4085 4680 c-3 -4 -21 -11 -40 -14 -39 -8 -155 -72 -155 -86 0 -5 -9
-11 -19 -15 -11 -3 -23 -15 -26 -26 -4 -10 -10 -17 -14 -15 -4 3 -17 -15 -30
-40 -13 -24 -28 -44 -32 -44 -5 0 -8 -3 -7 -7 1 -5 -5 -22 -14 -38 -33 -61
-44 -212 -24 -308 16 -73 88 -195 141 -238 11 -10 33 -28 49 -42 16 -14 48
-33 70 -42 23 -10 50 -21 61 -26 41 -17 92 -25 145 -24 67 2 146 13 168 24
118 56 156 83 225 161 29 33 75 128 92 190 19 70 16 192 -6 248 -46 115 -91
179 -189 264 -19 17 -78 50 -82 47 -2 -2 -13 3 -26 10 -13 7 -33 15 -45 18
-36 9 -237 12 -242 3z"/>
</g>
</svg>
